<svg width="36" height="31" viewBox="0 0 36 31" fill="none" xmlns="http://www.w3.org/2000/svg">
<path d="M27.6035 0.351584C28.4238 0.00978704 29.3604 0.201193 29.9893 0.823263L34.3643 5.19826C34.7744 5.60842 35.0068 6.16213 35.0068 6.74319C35.0068 7.32424 34.7744 7.87795 34.3643 8.28811L29.9893 12.6631C29.3604 13.292 28.4238 13.4766 27.6035 13.1348C26.7832 12.793 26.25 12 26.25 11.1113V8.93752H24.0625C23.3721 8.93752 22.7227 9.25881 22.3125 9.81252L19.4141 13.6748L16.6797 10.0313L18.8125 7.18752C20.0498 5.53322 21.998 4.56252 24.0625 4.56252H26.25V2.37502C26.25 1.49319 26.7832 0.693381 27.6035 0.351584ZM11.2109 17.3252L13.9453 20.9688L11.8125 23.8125C10.5752 25.4668 8.62695 26.4375 6.5625 26.4375H2.1875C0.977539 26.4375 0 25.46 0 24.25C0 23.0401 0.977539 22.0625 2.1875 22.0625H6.5625C7.25293 22.0625 7.90234 21.7412 8.3125 21.1875L11.2109 17.3252ZM29.9824 30.1768C29.3535 30.8057 28.417 30.9903 27.5967 30.6485C26.7764 30.3067 26.2432 29.5137 26.2432 28.625V26.4375H24.0625C21.998 26.4375 20.0498 25.4668 18.8125 23.8125L8.3125 9.81252C7.90234 9.25881 7.25293 8.93752 6.5625 8.93752H2.1875C0.977539 8.93752 0 7.95998 0 6.75002C0 5.54006 0.977539 4.56252 2.1875 4.56252H6.5625C8.62695 4.56252 10.5752 5.53322 11.8125 7.18752L22.3125 21.1875C22.7227 21.7412 23.3721 22.0625 24.0625 22.0625H26.25V19.875C26.25 18.9932 26.7832 18.1934 27.6035 17.8516C28.4238 17.5098 29.3604 17.7012 29.9893 18.3233L34.3643 22.6983C34.7744 23.1084 35.0068 23.6621 35.0068 24.2432C35.0068 24.8242 34.7744 25.378 34.3643 25.7881L29.9893 30.1631L29.9824 30.1768Z" fill="url(#paint0_linear_7_212)"/>
<defs>
<linearGradient id="paint0_linear_7_212" x1="35" y1="1.59012e-05" x2="-5" y2="31" gradientUnits="userSpaceOnUse">
<stop stop-color="#498AFB"/>
<stop offset="1" stop-color="#09C372"/>
</linearGradient>
</defs>
</svg>
